<?xml version="1.0" encoding="UTF-8" standalone="no"?>
<!-- Created with Inkscape (http://www.inkscape.org/) -->

<svg
   width="116.06765mm"
   height="40.839256mm"
   viewBox="0 0 116.06765 40.839256"
   version="1.1"
   id="svg1"
   xmlns="http://www.w3.org/2000/svg"
   xmlns:svg="http://www.w3.org/2000/svg">
  <defs
     id="defs1" />
  <g
     id="layer1"
     transform="translate(-44.760254,-211.55026)">
    <path
       style="font-weight:bold;font-stretch:condensed;font-size:60.6805px;line-height:0.7;font-family:Bahnschrift;-inkscape-font-specification:'Bahnschrift Bold Condensed';letter-spacing:-2.52836px;word-spacing:0px;fill:#453142;stroke-width:9.55599;stroke-linecap:round;stroke-linejoin:round;stroke-miterlimit:3.8;paint-order:stroke markers fill"
       d="m 52.332215,272.04286 q -3.407352,0 -5.836943,-1.24443 -2.399961,-1.27405 -3.703644,-3.64438 -1.274053,-2.37034 -1.274053,-5.74806 v -2.31107 l 7.3184,-0.0593 v 2.31107 q 0,1.62961 0.918504,2.57774 0.918503,0.9185 2.548107,0.9185 1.599974,0 2.459219,-0.9185 0.888875,-0.9185 0.888875,-2.51848 v -3.7629 q 0,-1.33331 -0.799987,-2.22219 -0.770358,-0.9185 -2.074041,-1.6296 -1.303682,-0.74073 -2.814769,-1.48146 -1.451829,-0.74073 -2.962915,-1.65923 -1.481458,-0.9185 -2.725882,-2.19256 -1.214795,-1.30368 -1.985153,-3.17032 -0.740729,-1.86663 -0.740729,-4.50363 v -2.22218 q 0,-4.9777 2.78514,-7.73321 2.81477,-2.75551 7.910983,-2.75551 4.948069,0 7.733209,2.78514 2.78514,2.78514 2.78514,7.82209 v 2.42959 l -7.3184,0.0889 v -2.45922 q 0,-1.65923 -0.859246,-2.57773 -0.829616,-0.94814 -2.340703,-0.94814 -1.599974,0 -2.488848,0.85925 -0.859246,0.82961 -0.859246,2.31107 v 2.87403 q 0,1.51109 0.888875,2.48885 0.918504,0.94813 2.340703,1.68886 1.451828,0.7111 3.051802,1.57034 1.39257,0.7111 2.755511,1.54072 1.39257,0.82962 2.518478,2.01478 1.155537,1.18517 1.837007,2.93329 0.7111,1.74812 0.7111,4.32585 v 3.58513 q 0,5.03696 -2.814769,7.85173 -2.78514,2.78514 -7.851725,2.78514 z m 22.774935,0 q -4.592519,0 -7.170255,-2.45922 -2.548107,-2.48885 -2.548107,-6.99248 v -12.26647 q 0,-4.79992 2.488849,-7.40729 2.518478,-2.60736 6.992479,-2.60736 4.592519,0 7.110996,2.5481 2.518478,2.54811 2.518478,7.22952 v 8.71097 H 71.314618 v -5.36288 h 6.073976 v -3.67401 q 0,-1.36295 -0.68147,-2.1333 -0.651842,-0.77036 -1.837008,-0.77036 -1.096278,0 -1.71849,0.82961 -0.622212,0.79999 -0.622212,2.28145 v 12.85905 q 0,1.27405 0.68147,1.95552 0.68147,0.68148 1.896266,0.68148 1.155536,0 1.777749,-0.56296 0.622212,-0.56295 0.622212,-1.59997 v -1.06665 l 7.081367,0.0593 v 0.85924 q 0,4.23697 -2.488849,6.57767 -2.488849,2.31108 -6.992479,2.31108 z m 12.1677,-0.44444 v -30.75506 h 7.407288 v 30.75506 z m 12.088693,0 v -21.71817 q 0,-1.45183 -0.592583,-2.19256 -0.592583,-0.77035 -1.777749,-0.77035 -1.185166,0 -1.748119,0.74073 -0.562954,0.74072 -0.562954,2.19255 l -0.622212,-3.64438 q 0.948132,-2.90366 2.725881,-4.38512 1.777749,-1.51108 3.911053,-1.51108 2.84439,0 4.41474,2.04441 1.59997,2.04441 1.59997,5.74805 v 23.49592 z m 21.886057,0 v -43.08079 h 7.34803 v 43.08079 z m -5.80731,0.50369 q -2.87403,0 -4.474,-2.19255 -1.57035,-2.19256 -1.57035,-6.16287 v -15.08123 q 0,-3.97031 1.59998,-6.13324 1.59997,-2.19255 4.44437,-2.19255 2.01478,0 3.70364,1.48145 1.71849,1.45183 2.72588,4.08883 l -0.62221,3.85179 q 0,-0.91851 -0.29629,-1.51109 -0.26666,-0.62221 -0.77036,-0.94813 -0.50369,-0.32592 -1.24442,-0.32592 -1.12591,0 -1.74812,0.74072 -0.62221,0.74073 -0.62221,2.10367 v 12.85905 q 0,1.30369 0.62221,2.01479 0.62221,0.7111 1.74812,0.7111 0.74073,0 1.24442,-0.29629 0.5037,-0.32593 0.77036,-0.94814 0.29629,-0.62221 0.29629,-1.51108 l 0.41481,4.11845 q -0.77036,2.48885 -2.39996,3.91105 -1.6296,1.42219 -3.82216,1.42219 z"
       id="text9-0"
       transform="scale(1.0781038,0.92755444)"
       aria-label="Send" />
    <path
       style="font-weight:bold;font-stretch:condensed;font-size:60.6805px;line-height:0.7;font-family:Bahnschrift;-inkscape-font-specification:'Bahnschrift Bold Condensed';letter-spacing:-2.52836px;word-spacing:0px;fill:#4f86ca;stroke-width:9.55599;stroke-linecap:round;stroke-linejoin:round;stroke-miterlimit:3.8;paint-order:stroke markers fill"
       d="m 148.88035,228.49417 v 6.51841 l -10.69613,29.51063 h 10.99242 v 7.05174 h -18.54785 v -6.51841 L 141.4138,235.5459 h -10.25168 v -7.05173 z"
       id="text9-2-2"
       transform="scale(1.0781038,0.92755444)"
       aria-label="Z" />
  </g>
</svg>
